<svg id="Text_" xmlns="http://www.w3.org/2000/svg" width="1024" height="1024" viewBox="0 0 1024 1024">
  <defs>
    <style>
      .cls-1 {
        fill-rule: evenodd;
      }
    </style>
  </defs>
  <path id="right_bracket" class="cls-1" d="M758.606,750.444v39.687h43.977A58.567,58.567,0,0,0,825.43,785.2a64.261,64.261,0,0,0,21.238-14.8,77.424,77.424,0,0,0,15.66-24.778q6.114-14.913,6.114-34.646V602.851a89.858,89.858,0,0,1,4.076-27.674,71.574,71.574,0,0,1,10.941-21.667,52.126,52.126,0,0,1,15.767-14.051,37.164,37.164,0,0,1,18.557-5.042V491.3a37.132,37.132,0,0,1-18.557-5.041,52.09,52.09,0,0,1-15.767-14.052,71.766,71.766,0,0,1-10.941-21.559,89.552,89.552,0,0,1-4.076-27.781V313.886q0-19.091-6.114-34a81.508,81.508,0,0,0-15.66-25.1,67.809,67.809,0,0,0-21.238-15.553,54.612,54.612,0,0,0-22.847-5.364H758.606v39.473h31.749q7.935,0,13.194,4.183a29.124,29.124,0,0,1,8.366,11.156,60.2,60.2,0,0,1,4.4,16.2A141.357,141.357,0,0,1,817.6,324.4V431.66q0,19.1,4.827,33.251a89.962,89.962,0,0,0,11.906,23.92,68.242,68.242,0,0,0,15.124,15.553,54.6,54.6,0,0,0,14.7,7.937,93.219,93.219,0,0,0-14.266,9.547,81.328,81.328,0,0,0-15.231,16.2,93.131,93.131,0,0,0-12.121,23.705q-4.938,13.838-4.934,32.286V702.176a125.2,125.2,0,0,1-1.287,18.342,55.281,55.281,0,0,1-4.4,15.338,27.782,27.782,0,0,1-8.366,10.619q-5.26,3.967-13.194,3.969H758.606Z"/>
  <path id="left_bracket" class="cls-1" d="M250.585,273.341V233.868H206.822a55.73,55.73,0,0,0-23.169,5.364,69.815,69.815,0,0,0-21.559,15.553,80.721,80.721,0,0,0-15.982,25.1q-6.225,14.913-6.222,34V422.865a89.277,89.277,0,0,1-3.861,26.6,76.069,76.069,0,0,1-10.512,21.774,52.18,52.18,0,0,1-15.553,14.695,36.551,36.551,0,0,1-19.2,5.363v43.119a39.656,39.656,0,0,1,19.2,4.827,48.394,48.394,0,0,1,15.553,13.623,68.181,68.181,0,0,1,10.512,21.559,97.982,97.982,0,0,1,3.861,28.425v108.12q0,19.736,6.222,34.646A76.725,76.725,0,0,0,162.094,770.4a66.174,66.174,0,0,0,21.559,14.8,59.784,59.784,0,0,0,23.169,4.934h43.763V750.444H219.05a20.963,20.963,0,0,1-13.3-4.184,30.665,30.665,0,0,1-8.688-11.048,55.688,55.688,0,0,1-4.719-15.445,109.253,109.253,0,0,1-1.4-17.591V594.055q0-20.8-4.934-35.182T174,535.168a59.7,59.7,0,0,0-14.91-14.373,81.729,81.729,0,0,0-13.837-7.4,80.073,80.073,0,0,0,13.837-9.975A88.839,88.839,0,0,0,174,486.364a105.4,105.4,0,0,0,12.013-23.92,90,90,0,0,0,4.934-30.784V323.54a125.223,125.223,0,0,1,1.4-18.986,55.866,55.866,0,0,1,4.719-15.982,30.682,30.682,0,0,1,8.688-11.048,20.963,20.963,0,0,1,13.3-4.183h31.535Z"/>
  <path id="_0x58" data-name="0x58" class="cls-1" d="M272.427,499.659a123.973,123.973,0,0,1,1.289-13.707,91.616,91.616,0,0,1,3.008-13.319,41.279,41.279,0,0,1,5.413-11.429,26.632,26.632,0,0,1,8.593-7.991,24.332,24.332,0,0,1,12.461-3.008,24.752,24.752,0,0,1,12.589,3.008,26.922,26.922,0,0,1,8.679,7.991,40.6,40.6,0,0,1,5.456,11.429,92.011,92.011,0,0,1,3.008,13.319,123.973,123.973,0,0,1,1.289,13.707q0.258,6.831.258,12.5,0,5.844-.172,12.675a131,131,0,0,1-1.074,13.706,86.756,86.756,0,0,1-2.793,13.276,39.027,39.027,0,0,1-5.371,11.386,26.058,26.058,0,0,1-8.808,7.949,26.534,26.534,0,0,1-13.061,2.964,26.088,26.088,0,0,1-12.933-2.964,25.773,25.773,0,0,1-8.722-7.949,39.625,39.625,0,0,1-5.328-11.386,86.517,86.517,0,0,1-2.793-13.276,130.643,130.643,0,0,1-1.074-13.749q-0.173-6.875-.172-12.632Q272.169,506.49,272.427,499.659Zm-29.174,27.283q0.3,7.563,1.246,15.038a121.715,121.715,0,0,0,2.75,14.608,73.709,73.709,0,0,0,4.812,13.492,54.959,54.959,0,0,0,7.433,11.686,43.584,43.584,0,0,0,10.656,9.2,52.364,52.364,0,0,0,14.393,6.015,73.5,73.5,0,0,0,18.648,2.149,74.4,74.4,0,0,0,18.776-2.149,52.318,52.318,0,0,0,14.436-6.015,43.64,43.64,0,0,0,10.656-9.2,56.343,56.343,0,0,0,7.476-11.686,71.858,71.858,0,0,0,4.855-13.492,121.913,121.913,0,0,0,2.75-14.608q0.944-7.476,1.246-15.038t0.3-14.78q0-9.108-.558-19.12a127.557,127.557,0,0,0-2.621-19.636,90.761,90.761,0,0,0-5.972-18.3,47.994,47.994,0,0,0-27.327-25.694q-9.924-3.867-24.017-3.867-14.008,0-23.932,3.867a48.1,48.1,0,0,0-16.585,10.441A50.825,50.825,0,0,0,252.061,455.1a87.142,87.142,0,0,0-5.972,18.3,130.92,130.92,0,0,0-2.578,19.636q-0.559,10.011-.559,19.12Q242.952,519.38,243.253,526.942ZM422.8,530.809l-46.145,65.48H411.2l29.561-44,29.217,44h35.575l-46.832-67.2,42.965-57.746H466.114l-25.35,36.607-25.006-36.607H380.182Zm207.35-77.768V428.378H538.98l-16.928,91.861,24.318,0.688q3.179-3.179,6.4-5.93a45.775,45.775,0,0,1,6.789-4.812,33.925,33.925,0,0,1,7.562-3.222,31.489,31.489,0,0,1,8.808-1.16,37.643,37.643,0,0,1,13.878,2.449,31.125,31.125,0,0,1,10.656,6.831,30.114,30.114,0,0,1,6.831,10.484,36.013,36.013,0,0,1,2.406,13.319,43.8,43.8,0,0,1-2.492,15.468,31.132,31.132,0,0,1-6.788,11,27.749,27.749,0,0,1-10.054,6.574,34.5,34.5,0,0,1-12.375,2.191,32.585,32.585,0,0,1-12.374-2.234,28.332,28.332,0,0,1-9.5-6.23,31.048,31.048,0,0,1-6.4-9.366,36.953,36.953,0,0,1-3.008-11.73H518.529A57.848,57.848,0,0,0,523.6,567.8a50.147,50.147,0,0,0,12.546,16.886,53.267,53.267,0,0,0,18.174,10.269,68.465,68.465,0,0,0,21.956,3.48q15.81,0,27.627-4.812a57.376,57.376,0,0,0,19.678-12.847,52.543,52.543,0,0,0,11.773-18.432,61.027,61.027,0,0,0,3.91-21.655q0-14.952-4.512-26.08a50.248,50.248,0,0,0-30.978-29.69,69.6,69.6,0,0,0-22.944-3.695,71.07,71.07,0,0,0-13.534,1.289,36.05,36.05,0,0,0-12.5,4.984l6.7-34.458h68.66Zm64.875,9.581a19.689,19.689,0,0,1,5.886-6.574,26.547,26.547,0,0,1,8.336-3.867,35.949,35.949,0,0,1,9.581-1.289,34.984,34.984,0,0,1,9.925,1.332,22.429,22.429,0,0,1,7.777,3.953,17.67,17.67,0,0,1,5.07,6.617,22.247,22.247,0,0,1,1.8,9.238,23.685,23.685,0,0,1-1.8,9.5,20.171,20.171,0,0,1-4.984,7.046A22.039,22.039,0,0,1,729.058,493a28.475,28.475,0,0,1-9.538,1.547,35.694,35.694,0,0,1-10.14-1.418,25.777,25.777,0,0,1-8.508-4.254,20.385,20.385,0,0,1-8.077-16.842A18.967,18.967,0,0,1,695.029,462.622ZM665.211,480.84a42.009,42.009,0,0,0,9.409,17.4,38.386,38.386,0,0,0,7.605,6.531q-12.2,6.1-18.26,16.713a47.753,47.753,0,0,0-6.059,24.1q0,13.321,4.77,23.374a47.224,47.224,0,0,0,13.061,16.756,56.208,56.208,0,0,0,19.55,10.054,84.561,84.561,0,0,0,24.233,3.352,75.067,75.067,0,0,0,23.2-3.524,57.228,57.228,0,0,0,19.12-10.311,49.2,49.2,0,0,0,13.019-16.757,52.175,52.175,0,0,0,4.812-22.944,45.7,45.7,0,0,0-6.531-24.447,44.893,44.893,0,0,0-18.819-16.714,36.222,36.222,0,0,0,13.835-13.921A40.693,40.693,0,0,0,772.625,471a47.5,47.5,0,0,0-1.375-11.3A40.9,40.9,0,0,0,767,449.045a41.7,41.7,0,0,0-7.347-9.324,45.127,45.127,0,0,0-10.613-7.476A57.988,57.988,0,0,0,735.03,427.3a81.1,81.1,0,0,0-17.659-1.762,69.786,69.786,0,0,0-13.706,1.332,63,63,0,0,0-12.632,3.91,51.371,51.371,0,0,0-10.956,6.4,40.59,40.59,0,0,0-8.55,8.894,42,42,0,0,0-5.586,11.3A43.943,43.943,0,0,0,663.922,471,38.152,38.152,0,0,0,665.211,480.84Zm24.447,54.051a25.661,25.661,0,0,1,6.875-8.637,31.838,31.838,0,0,1,10.183-5.456,39.409,39.409,0,0,1,12.46-1.934,33.7,33.7,0,0,1,11.9,2.106,32.5,32.5,0,0,1,9.882,5.757,27.105,27.105,0,0,1,6.7,8.593,23.573,23.573,0,0,1,2.449,10.613,29.472,29.472,0,0,1-2.191,11.558,25.114,25.114,0,0,1-6.23,8.894,28.284,28.284,0,0,1-9.667,5.714,36.8,36.8,0,0,1-12.5,2.019,44.716,44.716,0,0,1-13.062-1.8,29.024,29.024,0,0,1-10.226-5.371,24.684,24.684,0,0,1-6.7-8.765,28.035,28.035,0,0,1-2.406-11.9A25.279,25.279,0,0,1,689.658,534.891Z"/>
</svg>
